PathFileType	4	(X/Y/Z)	C:\Users\Basilio\Documents\Thesis Gigler\squatting_fais\c3dfiles\047\SLS_pre_front1\markers_experimental.trc
DataRate	CameraRate	NumFrames	NumMarkers	Units	OrigDataRate	OrigDataStartFrame	OrigNumFrames
200.000000	200.000000	4	60	mm	200.000000	906	1209
Frame#	Time	FHD			LBHD			RBHD			C7			T10			CLAV			LSHO			LUUPA			LMUPA			LDUPA			LLEP			LRAD			LUL			LRFIN			RSHO			RUPA1			RMUPA			RDUPA			RLEP			RMEP			RRAD			RUL			RUFIN			LASI			RASI			USACR			LSACR			RSACR			LTHI1			LTHI2			LTHI3			LTHI4			LLFC			LMFC			LTIB1			LTIB2			LTIB3			LTIB4			LLMAL			LMMAL			LMT1			LMT2			LMT5			RTHI			RTHI2			RTHI3			RTHI4			RLFC			RMFC			RTIB1			RTIB2			RTIB3			RTIB4			RLMAL			RMMAL			RHEE			RMT1			RMT2			RMT5			LMEP			
		X1	Y1	Z1	X2	Y2	Z2	X3	Y3	Z3	X4	Y4	Z4	X5	Y5	Z5	X6	Y6	Z6	X7	Y7	Z7	X8	Y8	Z8	X9	Y9	Z9	X10	Y10	Z10	X11	Y11	Z11	X12	Y12	Z12	X13	Y13	Z13	X14	Y14	Z14	X15	Y15	Z15	X16	Y16	Z16	X17	Y17	Z17	X18	Y18	Z18	X19	Y19	Z19	X20	Y20	Z20	X21	Y21	Z21	X22	Y22	Z22	X23	Y23	Z23	X24	Y24	Z24	X25	Y25	Z25	X26	Y26	Z26	X27	Y27	Z27	X28	Y28	Z28	X29	Y29	Z29	X30	Y30	Z30	X31	Y31	Z31	X32	Y32	Z32	X33	Y33	Z33	X34	Y34	Z34	X35	Y35	Z35	X36	Y36	Z36	X37	Y37	Z37	X38	Y38	Z38	X39	Y39	Z39	X40	Y40	Z40	X41	Y41	Z41	X42	Y42	Z42	X43	Y43	Z43	X44	Y44	Z44	X45	Y45	Z45	X46	Y46	Z46	X47	Y47	Z47	X48	Y48	Z48	X49	Y49	Z49	X50	Y50	Z50	X51	Y51	Z51	X52	Y52	Z52	X53	Y53	Z53	X54	Y54	Z54	X55	Y55	Z55	X56	Y56	Z56	X57	Y57	Z57	X58	Y58	Z58	X59	Y59	Z59	X60	Y60	Z60	

907	4.53	-207.8538208007813	1752.5947265625	-1081.305297851563	-381.4693298339844	1702.859130859375	-1110.32373046875	-362.1844787597657	1710.446533203125	-962.6110839843752	-394.7556762695314	1524.898559570313	-1035.351806640625	-410.4424438476564	1218.549560546875	-1014.90966796875	-244.8329010009766	1472.494750976563	-1054.839721679688	-324.4713134765626	1510.189331054688	-1197.043212890625	-228.8331451416016	1456.929931640625	-1327.135986328125	-206.1425323486329	1500.429809570313	-1318.432739257813	-165.7086791992188	1472.815673828125	-1352.432250976563	-108.3078079223633	1501.605590820313	-1369.299438476563	158.7769012451172	1540.463012695313	-1367.9140625	136.510726928711	1558.4697265625	-1440.100463867188	235.2877960205079	1583.28955078125	-1398.299560546875	-294.1242675781251	1527.88134765625	-911.6667480468752	-154.8385925292969	1482.235107421875	-809.949157714844	-133.8035583496094	1519.377319335938	-834.5979003906252	-85.29274749755861	1489.084594726563	-814.5176391601565	-20.52482986450196	1511.001098632813	-828.5180664062502	-7.111540317535402	1447.574951171875	-879.0713500976565	231.1419982910157	1551.280517578125	-927.5560302734377	231.2827301025391	1563.24951171875	-853.3920898437502	307.3377685546876	1584.71484375	-924.142761230469	-244.3686218261719	986.3916015625002	-1096.856689453125	-244.8124694824219	1027.258178710938	-870.3028564453127	-427.375946044922	1082.228881835938	-1003.217956542969	-430.0714416503907	1048.245483398438	-1027.24560546875	-434.6646118164064	1055.226928710938	-969.4099731445315	-325.3252258300782	825.9241943359377	-1158.858154296875	-287.1642150878907	750.6809082031251	-1155.873291015625	-239.1374816894532	756.9977416992189	-1143.380493164063	-313.7344970703126	695.7369384765626	-1148.587280273438	-328.3175354003907	525.4311523437501	-1106.746826171875	-299.9908142089844	521.2358398437501	-984.6284790039065	-291.4387512207032	343.9475708007813	-1005.337463378906	-295.6846923828126	295.3931884765626	-1080.396484375	-279.7613220214844	295.1628112792969	-1034.774169921875	-290.6844787597657	218.5649566650391	-1003.8017578125	-334.6397094726563	118.6093215942383	-1048.0380859375	-315.0030822753907	134.1641998291016	-961.047790527344	-191.8695678710938	62.71374130249025	-977.341491699219	-188.7305755615235	61.14466857910158	-1022.389526367188	-237.1545867919922	46.53034210205079	-1068.018310546875	-243.6539459228516	882.559509277344	-762.1874389648439	-176.929672241211	877.525329589844	-760.9145507812501	-158.1757354736328	901.6102294921877	-771.847595214844	-132.1349334716797	806.184753417969	-759.1791992187501	-14.63831901550293	720.0700683593751	-771.4652099609377	9.235162734985353	720.3659667968751	-893.9951782226565	87.19664001464845	634.2307128906251	-784.4671020507815	78.78891754150392	535.8284912109376	-736.5460205078126	115.2415847778321	556.9360351562501	-756.1792602539064	146.4576568603516	518.3868408203126	-788.5308227539065	170.381591796875	361.5631408691407	-745.3621215820314	183.2110137939453	376.8735961914063	-834.6919555664065	130.4254455566407	303.2814025878907	-790.7529907226565	329.5723266601563	361.3347167968751	-823.3763427734377	333.3702087402344	373.8525085449219	-779.2939453125002	301.1808471679688	338.0291442871094	-719.0684814453126	-73.1121292114258	1441.709594726563	-1324.880615234375	
908	4.535	-208.7270660400391	1752.638305664063	-1080.991943359375	-382.6037292480469	1702.911987304688	-1109.793701171875	-363.1923828125001	1710.258422851563	-962.1702880859377	-395.7132873535157	1524.611450195313	-1035.04541015625	-410.6028137207032	1217.841918945313	-1015.132446289063	-245.6942291259766	1472.595703125	-1054.553955078125	-325.2312622070313	1509.970947265625	-1196.715087890625	-229.5531463623047	1457.13525390625	-1327.048095703125	-206.8107604980469	1500.686279296875	-1318.182739257813	-166.5916595458985	1473.43017578125	-1352.113647460938	-108.7662887573242	1501.85498046875	-1369.121826171875	157.7284240722657	1541.484008789063	-1367.683227539063	135.655014038086	1559.410278320313	-1439.918334960938	234.8624114990235	1584.634643554688	-1398.129150390625	-295.5550537109376	1527.973754882813	-911.1080322265627	-155.9084625244141	1482.345092773438	-809.719421386719	-134.7309265136719	1519.558837890625	-834.0894165039065	-86.77803039550783	1489.077758789063	-813.5381469726565	-21.3530445098877	1511.233764648438	-828.0202636718752	-7.871772289276125	1447.817260742188	-878.9058837890627	230.0194091796876	1552.024291992188	-926.8491210937502	229.8415985107422	1564.139404296875	-852.387634277344	306.0307006835938	1586.062744140625	-923.539001464844	-243.6036682128907	986.4094238281252	-1096.9580078125	-244.4846496582032	1027.131225585938	-870.4131469726565	-426.8529663085939	1081.687133789063	-1003.682922363281	-429.8024291992189	1047.966918945313	-1027.547607421875	-434.1539306640626	1054.68212890625	-969.889831542969	-324.5472412109376	825.9065551757815	-1159.205810546875	-286.9212951660157	750.5884399414064	-1155.903564453125	-238.8304748535157	756.6196289062501	-1143.288818359375	-313.5434875488282	695.7017822265626	-1148.722290039063	-328.8578491210938	525.3774414062501	-1106.8837890625	-301.0149230957032	521.1972045898439	-984.4951171875002	-291.8663330078126	344.0245056152344	-1005.49609375	-296.0039062500001	295.3533325195313	-1080.535034179688	-280.2503051757813	294.9642333984376	-1034.513427734375	-290.9735717773438	218.5651855468751	-1003.875732421875	-334.1716308593751	118.1850128173828	-1048.151245117188	-315.1011047363282	134.0523834228516	-961.0570068359377	-191.6988677978516	62.74597167968751	-977.3514404296877	-188.730453491211	61.08693313598634	-1022.363891601563	-237.1147155761719	46.58150863647462	-1068.081420898438	-243.3987274169922	882.1925048828127	-762.1741943359376	-176.3772125244141	877.3978271484377	-761.0715332031251	-157.6326599121094	901.537780761719	-771.9246215820315	-131.4774627685547	806.3319091796877	-759.2128906250001	-13.82417392730713	720.3167114257814	-771.2771606445315	8.675858497619631	720.2957763671876	-893.641784667969	87.82840728759767	634.5563964843751	-784.2150878906252	79.62563323974611	535.8156127929689	-736.1654052734376	116.0918426513672	557.3267822265626	-755.7572021484376	147.2389068603516	518.7090454101564	-787.8867187500002	171.0442352294922	361.9752807617188	-744.7863159179689	184.2984924316407	377.3300170898438	-834.359802246094	131.1027526855469	303.8583068847657	-790.2441406250002	331.1167297363282	361.9649047851563	-822.7760009765627	334.5711364746094	374.3539428710938	-778.5862426757815	302.4015808105469	338.7957763671876	-718.6397094726564	-73.64996337890626	1443.097900390625	-1324.416625976563	
909	4.54	-210.5164489746094	1751.715698242188	-1079.41064453125	-383.5319824218751	1702.703979492188	-1109.407958984375	-363.7989807128907	1710.185791015625	-961.8740844726565	-396.5676269531251	1524.365234375	-1034.840942382813	-410.6021728515626	1217.564331054688	-1015.278503417969	-246.4644317626954	1472.625854492188	-1054.23388671875	-325.5393981933594	1509.903198242188	-1196.642822265625	-230.1003570556641	1457.331665039063	-1326.896728515625	-207.4727172851563	1500.95166015625	-1317.922607421875	-167.2713775634766	1473.7685546875	-1351.888916015625	-109.5687942504883	1502.48583984375	-1368.684814453125	156.9135894775391	1542.364990234375	-1367.473754882813	134.8720703125	1560.51025390625	-1439.58837890625	234.2457733154297	1585.574096679688	-1397.910888671875	-296.5752868652344	1527.624267578125	-910.6536865234377	-156.5045166015625	1482.223022460938	-809.607604980469	-135.6334228515625	1519.577880859375	-833.715270996094	-87.32553100585939	1489.285522460938	-813.7554931640627	-22.45189285278321	1511.598510742188	-827.3824462890627	-8.756708145141603	1448.134399414063	-878.2053222656252	229.0202178955079	1553.280883789063	-926.2027587890627	229.123031616211	1565.017700195313	-852.093688964844	304.7034912109376	1587.051391601563	-922.5450439453127	-242.931625366211	986.419616699219	-1097.141357421875	-244.2063140869141	1026.904418945313	-870.5313110351565	-426.7092895507814	1081.689453125	-1003.920532226563	-429.4176635742189	1047.529174804688	-1028.017700195313	-433.453826904297	1054.33544921875	-970.2838134765627	-323.9939270019532	825.931579589844	-1159.49755859375	-286.5171813964844	750.4163818359376	-1156.101440429688	-238.442123413086	756.2898559570314	-1143.22216796875	-313.3933715820313	695.6773071289064	-1148.901245117188	-329.2212219238282	525.3680419921876	-1107.0615234375	-301.4388122558594	521.0017089843751	-984.8508911132815	-292.4946594238282	344.0417480468751	-1005.519226074219	-296.1764526367188	295.2705078125001	-1080.634033203125	-280.5812377929688	294.9208374023438	-1034.542724609375	-291.0910034179688	218.1751251220704	-1004.430603027344	-334.8012390136719	118.5722351074219	-1048.04638671875	-315.1711120605469	134.0100555419922	-961.0449218750002	-191.8668365478516	62.7229347229004	-977.3315429687502	-188.7489318847657	61.16248703002931	-1022.376098632813	-237.1443176269532	46.60365676879884	-1068.088989257813	-242.7953643798829	881.8648681640627	-762.2929077148439	-176.0826263427735	877.2482910156252	-761.1550903320314	-157.2234649658203	901.497497558594	-771.9163208007815	-131.1840057373047	806.377136230469	-759.3223266601564	-13.02245616912842	720.4234619140626	-771.1955566406252	10.7468433380127	720.6175537109376	-893.399108886719	88.80307006835939	635.0415649414064	-784.0627441406252	80.34472656250001	535.9815673828126	-736.3374023437501	116.8929595947266	557.6859130859376	-755.4519042968751	148.437973022461	518.9981689453126	-787.5041503906252	172.4869842529297	362.4642028808594	-744.5302734375001	185.73095703125	377.8552856445313	-834.236755371094	132.9188232421875	303.7073974609376	-790.3234863281252	332.2448120117188	362.5207519531251	-822.1717529296877	335.4495849609376	374.8345336914063	-778.0726318359377	303.0927124023438	339.2928771972657	-718.0197753906251	-74.11421203613283	1443.09912109375	-1324.296997070313	
910	4.545	-210.2690429687501	1752.069213867188	-1080.479370117188	-384.5999450683595	1702.4892578125	-1108.971435546875	-364.8397827148438	1709.939819335938	-961.322692871094	-397.2573547363282	1523.938598632813	-1034.583129882813	-410.1094360351564	1217.670776367188	-1015.413146972656	-247.3172149658204	1472.598388671875	-1053.856079101563	-327.1410522460938	1509.643432617188	-1196.06201171875	-230.7943420410157	1457.536376953125	-1326.625854492188	-208.1475677490235	1501.144165039063	-1317.775390625	-167.696044921875	1473.957885742188	-1351.60986328125	-110.2502517700196	1503.026977539063	-1368.383422851563	156.1962432861328	1543.40771484375	-1366.986083984375	133.975326538086	1561.53173828125	-1439.211669921875	233.7817535400391	1586.673217773438	-1397.730590820313	-296.8560485839844	1527.144287109375	-910.612487792969	-157.8616027832032	1482.105346679688	-808.6963500976565	-136.7584075927735	1519.607788085938	-833.1697998046877	-88.46426391601564	1489.294311523438	-813.175964355469	-23.36934089660645	1511.935546875	-826.8179931640627	-9.467031478881838	1448.487548828125	-877.9324951171877	228.2183685302735	1554.177368164063	-925.6579589843752	227.8035736083985	1565.811767578125	-851.2915649414065	303.8735351562501	1588.002563476563	-921.796081542969	-241.9664306640626	986.5007934570315	-1097.488525390625	-243.7687530517579	1026.783203125	-870.8181152343752	-426.4376525878907	1081.118408203125	-1004.291137695313	-429.0654602050782	1047.11328125	-1028.509887695313	-433.1662902832032	1053.950073242188	-970.6662597656252	-323.3768615722657	825.9815673828127	-1159.760009765625	-286.0321044921876	750.3096923828126	-1156.2890625	-238.2316589355469	756.0590209960939	-1143.210327148438	-313.1396179199219	695.6434326171876	-1149.189697265625	-329.5771484375001	525.2609252929689	-1107.184692382813	-302.2051391601563	520.8482055664064	-984.7495117187502	-292.9121704101563	344.0009460449219	-1005.563659667969	-296.3733215332032	295.1723937988282	-1080.761474609375	-280.7783203125001	294.8471679687501	-1034.596435546875	-291.3744812011719	218.0320587158204	-1004.380065917969	-334.8328552246094	118.4595184326172	-1048.07470703125	-315.2101745605469	133.9321746826172	-961.027038574219	-191.8114929199219	62.70703887939455	-977.3505859375002	-188.7558746337891	61.18363571166994	-1022.352783203125	-237.2209014892579	46.51835250854493	-1067.956420898438	-242.5672302246094	881.665954589844	-762.1700439453126	-175.759994506836	877.0676879882815	-761.1473999023439	-156.9459838867188	901.3956298828127	-771.9537353515627	-130.7154998779297	806.3616943359377	-759.3804931640626	-12.53061485290528	720.8084106445314	-771.4287109375002	11.79268550872803	720.8131103515626	-893.2634277343752	89.42530822753908	635.3165893554689	-783.6323242187502	81.45494842529298	536.4483642578126	-736.2207641601564	117.4713592529297	557.9254150390626	-755.1547241210939	149.2590789794922	519.2817993164064	-787.1250000000002	173.0669860839844	362.8313598632813	-743.9901733398439	187.1338653564453	378.4393310546876	-833.9544677734377	133.5442352294922	304.4083251953126	-789.7687988281252	333.4583435058594	363.2080078125001	-821.7709960937502	336.7849731445313	375.4102783203126	-777.4550781250002	304.1091918945313	339.6294555664063	-717.7468261718751	-74.88433837890626	1443.952270507813	-1323.895141601563	
